<svg width="64" height="64" viewBox="0 0 64 64" fill="none" xmlns="http://www.w3.org/2000/svg">
<path d="M46 26H18C16.895 26 16 24.9558 16 23.6667V7.33333C16 6.04419 16.895 5 18 5H46C47.105 5 48 6.04419 48 7.33333V23.6667C48 24.9558 47.105 26 46 26Z" fill="#34CB79"/>
<path d="M16.5161 0.5H47.4839C50.0535 0.5 52.1449 2.59158 52.145 5.16113V26.5957C52.145 28.0865 51.8147 29.5821 51.187 30.9355L51.0571 31.2041V31.2051C50.4191 32.484 50.0806 33.9124 50.0806 35.3398V58.8389C50.0805 61.4084 47.989 63.5 45.4194 63.5H18.5806C16.0111 63.4999 13.9195 61.4083 13.9194 58.8389V35.3398C13.9194 34.0026 13.6221 32.6626 13.0591 31.4473L12.9429 31.2051C12.2312 29.7802 11.8551 28.1857 11.855 26.5957V5.16113C11.8551 2.59163 13.9466 0.500085 16.5161 0.5ZM16.5161 1.56445C14.5329 1.56454 12.9195 3.17796 12.9194 5.16113V26.5957C12.9195 27.9339 13.2168 29.2731 13.7798 30.4883L13.896 30.7295V30.7305C14.6076 32.1543 14.9838 33.7498 14.9839 35.3398V58.8389C14.984 60.822 16.5974 62.4354 18.5806 62.4355H45.4194C47.4027 62.4355 49.016 60.8221 49.0161 58.8389V35.3398C49.0162 33.849 49.3473 32.3534 49.9751 30.999L50.104 30.7305V30.7295C50.7422 29.4515 51.0805 28.0231 51.0806 26.5957V5.16113C51.0805 3.17791 49.4671 1.56445 47.4839 1.56445H16.5161Z" fill="#322153" stroke="#322153"/>
<path d="M19.6128 54.1775H23.7417C24.6041 54.1775 25.3061 54.8795 25.3062 55.7419V57.8064C25.3062 58.6689 24.6042 59.3708 23.7417 59.3708H19.6128C18.7504 59.3708 18.0483 58.6688 18.0483 57.8064V55.7419C18.0484 54.8795 18.7504 54.1775 19.6128 54.1775ZM19.1128 58.3064H24.2446L24.2437 57.8064L24.2417 55.7419V55.2419H19.1128V58.3064Z" fill="#322153" stroke="#322153"/>
<path d="M19.6128 45.9194H23.7417C24.6041 45.9194 25.3061 46.6214 25.3062 47.4839V49.5483C25.3062 50.4108 24.6042 51.1128 23.7417 51.1128H19.6128C18.7504 51.1128 18.0483 50.4108 18.0483 49.5483V47.4839C18.0484 46.6215 18.7504 45.9195 19.6128 45.9194ZM19.1128 50.0483H24.2446L24.2437 49.5483L24.2417 47.4839V46.9839H19.1128V50.0483Z" fill="#322153" stroke="#322153"/>
<path d="M19.6128 37.6614H23.7417C24.6041 37.6614 25.3061 38.3634 25.3062 39.2258V41.2903C25.3062 42.1528 24.6042 42.8547 23.7417 42.8547H19.6128C18.7504 42.8547 18.0483 42.1527 18.0483 41.2903V39.2258C18.0484 38.3634 18.7504 37.6614 19.6128 37.6614ZM19.1128 41.7903H24.2446L24.2437 41.2903L24.2417 39.2258V38.7258H19.1128V41.7903Z" fill="#322153" stroke="#322153"/>
<path d="M29.9355 54.1775H34.0645C34.9269 54.1775 35.6289 54.8795 35.6289 55.7419V57.8064C35.6289 58.6689 34.9269 59.3708 34.0645 59.3708H29.9355C29.0731 59.3708 28.3711 58.6688 28.3711 57.8064V55.7419C28.3711 54.8795 29.0731 54.1775 29.9355 54.1775ZM29.4355 58.3064H34.5674L34.5664 57.8064L34.5645 55.7419V55.2419H29.4355V58.3064Z" fill="#322153" stroke="#322153"/>
<path d="M29.9355 45.9194H34.0645C34.9269 45.9194 35.6289 46.6214 35.6289 47.4839V49.5483C35.6289 50.4108 34.9269 51.1128 34.0645 51.1128H29.9355C29.0731 51.1128 28.3711 50.4108 28.3711 49.5483V47.4839C28.3711 46.6215 29.0731 45.9195 29.9355 45.9194ZM29.4355 50.0483H34.5674L34.5664 49.5483L34.5645 47.4839V46.9839H29.4355V50.0483Z" fill="#322153" stroke="#322153"/>
<path d="M29.9355 37.6614H34.0645C34.9269 37.6614 35.6289 38.3634 35.6289 39.2258V41.2903C35.6289 42.1528 34.9269 42.8547 34.0645 42.8547H29.9355C29.0731 42.8547 28.3711 42.1527 28.3711 41.2903V39.2258C28.3711 38.3634 29.0731 37.6614 29.9355 37.6614ZM29.4355 41.7903H34.5674L34.5664 41.2903L34.5645 39.2258V38.7258H29.4355V41.7903Z" fill="#322153" stroke="#322153"/>
<path d="M28.9033 29.4033H35.0967C36.5277 29.4033 37.6933 30.569 37.6934 32C37.6934 33.431 36.5277 34.5967 35.0967 34.5967H28.9033C27.4723 34.5966 26.3066 33.431 26.3066 32C26.3067 30.5691 27.4724 29.4034 28.9033 29.4033ZM28.9033 30.4678C28.0574 30.4678 27.3711 31.1557 27.3711 32C27.3711 32.8443 28.0573 33.5322 28.9033 33.5322H35.0967C35.9427 33.5322 36.6289 32.8444 36.6289 32C36.6289 31.1557 35.9427 30.4678 35.0967 30.4678H28.9033Z" fill="#322153" stroke="#322153"/>
<path d="M40.2578 54.1775H44.3867C45.2492 54.1775 45.9511 54.8795 45.9512 55.7419V57.8064C45.9512 58.6689 45.2492 59.3708 44.3867 59.3708H40.2578C39.3954 59.3708 38.6934 58.6688 38.6934 57.8064V55.7419C38.6934 54.8795 39.3954 54.1775 40.2578 54.1775ZM39.7578 58.3064H44.8896L44.8887 57.8064L44.8867 55.7419V55.2419H39.7578V58.3064Z" fill="#322153" stroke="#322153"/>
<path d="M40.2578 45.9194H44.3867C45.2492 45.9194 45.9511 46.6214 45.9512 47.4839V49.5483C45.9512 50.4108 45.2492 51.1128 44.3867 51.1128H40.2578C39.3954 51.1128 38.6934 50.4108 38.6934 49.5483V47.4839C38.6934 46.6215 39.3954 45.9195 40.2578 45.9194ZM39.7578 50.0483H44.8896L44.8887 49.5483L44.8867 47.4839V46.9839H39.7578V50.0483Z" fill="#322153" stroke="#322153"/>
<path d="M40.2578 37.6614H44.3867C45.2492 37.6614 45.9511 38.3634 45.9512 39.2258V41.2903C45.9512 42.1528 45.2492 42.8547 44.3867 42.8547H40.2578C39.3954 42.8547 38.6934 42.1527 38.6934 41.2903V39.2258C38.6934 38.3634 39.3954 37.6614 40.2578 37.6614ZM39.7578 41.7903H44.8896L44.8887 41.2903L44.8867 39.2258V38.7258H39.7578V41.7903Z" fill="#322153" stroke="#322153"/>
<path d="M45.9517 29.4033V34.5967H40.7583V29.4033H45.9517ZM41.8228 33.5322H44.8872V30.4678H41.8228V33.5322Z" fill="#322153" stroke="#322153"/>
<path d="M23.2417 29.4033V34.5967H18.0483V29.4033H23.2417ZM19.1128 33.5322H22.1772V30.4678H19.1128V33.5322Z" fill="#322153" stroke="#322153"/>
</svg>
