<svg width="64" height="64" viewBox="0 0 64 64" fill="none" xmlns="http://www.w3.org/2000/svg">
<g clip-path="url(#clip0_30629_128)">
<path d="M20 28.0001V38.0001H11V28.0001H20Z" stroke="#322153" stroke-width="2"/>
<path d="M38 14.0001C37.6106 15.5888 34 17.3224 34 19.143V26.0001H63V19.143C63 17.3224 58.8894 15.5888 58.5 14.0001H38Z" fill="#34CB79"/>
<path d="M1.03214 38.1936V43.3549C1.03214 44.0721 0.499997 48.5002 7.99992 51.0002L8.49992 54.5002H14.9999H22.5C22.5 49.5002 28 49.5002 29.5 45.5002L29.9354 38.1936H1.03214Z" fill="#34CB79"/>
<path d="M45.4189 0.5H51.6133C53.0441 0.500206 54.2099 1.66583 54.21 3.09668V4.67188L54.542 4.79004C55.5515 5.15013 56.2743 6.10403 56.2744 7.22559V13.0254L56.6631 13.1143C60.5727 14.0064 63.5 17.5055 63.5 21.6777V26.3389H55.2422V56.7744C55.2421 60.4823 52.2236 63.4997 48.5166 63.5C44.8094 63.5 41.7902 60.4825 41.79 56.7744V26.3389H33.5322V21.6777C33.5322 17.5055 36.4595 14.0064 40.3691 13.1143L40.7578 13.0254V7.22559C40.7579 6.10404 41.4808 5.15014 42.4902 4.79004L42.8223 4.67188V3.09668C42.8223 1.66584 43.9881 0.500222 45.4189 0.5ZM42.8545 56.7744C42.8546 59.8962 45.3948 62.4355 48.5166 62.4355C51.6382 62.4353 54.1776 59.8961 54.1777 56.7744V26.3389H51.1133V56.7744C51.1132 58.2052 49.9473 59.3708 48.5166 59.3711C47.0857 59.3711 45.9191 58.2053 45.9189 56.7744V26.3389H42.8545V56.7744ZM46.9834 56.7744C46.9835 57.6187 47.6707 58.3066 48.5166 58.3066C49.3623 58.3064 50.0487 57.6185 50.0488 56.7744V26.3389H46.9834V56.7744ZM42.3223 13.9512C38.5864 13.9513 35.4739 16.6183 34.7607 20.1455H34.5967V25.2744H62.4355V20.1455H62.2715C61.5583 16.6183 58.4458 13.9513 54.71 13.9512H42.3223ZM43.3545 5.69336C42.5087 5.69355 41.8224 6.38143 41.8223 7.22559V12.8867H55.21V7.22559C55.2098 6.38142 54.5235 5.69353 53.6777 5.69336H43.3545ZM45.4189 1.56445C44.5731 1.56467 43.8868 2.25248 43.8867 3.09668V4.62891H53.1455V3.09668C53.1455 2.25248 52.4591 1.56466 51.6133 1.56445H45.4189Z" fill="#322153" stroke="#322153"/>
<path d="M10.8545 60.9034C10.8546 61.7476 11.541 62.4355 12.3867 62.4357H18.5811C19.4268 62.4354 20.1131 61.7476 20.1133 60.9034V59.3712H10.8545V60.9034ZM8.79004 56.7745C8.79024 57.6186 9.47652 58.3066 10.3223 58.3068H20.6455C21.4912 58.3066 22.1775 57.6186 22.1777 56.7745V55.2423H8.79004V56.7745ZM1.56445 43.3546C1.56445 47.0465 4.56596 50.0478 8.25781 50.048H8.79004V54.1779H22.1777V50.048H22.71C26.4018 50.0478 29.4033 47.0465 29.4033 43.3546V38.7257H1.56445V43.3546ZM7.72559 51.1075L7.28809 51.0529C3.46767 50.5737 0.5 47.3021 0.5 43.3546V37.6613H30.4678V43.3546C30.4678 47.3021 27.5001 50.5737 23.6797 51.0529L23.2422 51.1075V56.7745C23.242 57.896 22.5192 58.85 21.5098 59.2101L21.1777 59.3282V60.9034C21.1776 62.3342 20.0118 63.4999 18.5811 63.5001H12.3867C10.956 63.4999 9.79017 62.3342 9.79004 60.9034V59.3282L9.45801 59.2101C8.44855 58.85 7.72575 57.896 7.72559 56.7745V51.1075Z" fill="#322153" stroke="#322153"/>
<path d="M8.25781 2.56458H18.5811C20.5819 2.5648 22.2099 4.1926 22.21 6.19348C22.21 6.85007 22.0195 7.46297 21.7031 8.00598L21.2656 8.75793H24.7744C26.7753 8.75805 28.4031 10.386 28.4033 12.3868C28.4033 13.1391 28.1729 13.8379 27.7793 14.4171L27.4141 14.9552L28.0273 15.17C29.4479 15.6685 30.4678 17.0041 30.4678 18.5812C30.4676 20.1581 29.4478 21.493 28.0273 21.9913L27.4141 22.2072L27.7793 22.7443C28.1729 23.3234 28.4033 24.0223 28.4033 24.7745C28.4032 26.7754 26.7753 28.4033 24.7744 28.4034H6.19336C4.19247 28.4033 2.56461 26.7754 2.56445 24.7745C2.56445 24.0223 2.79483 23.3234 3.18848 22.7443L3.55371 22.2072L2.94043 21.9913C1.51999 21.493 0.500204 20.1581 0.5 18.5812C0.5 17.1026 1.39607 15.8357 2.67871 15.2726L2.94043 15.17L3.55371 14.9552L3.18848 14.4171C2.79483 13.8379 2.56445 13.1391 2.56445 12.3868C2.56459 10.8099 3.58439 9.47508 5.00488 8.97668L5.61816 8.76086L5.25293 8.22375C4.85929 7.64458 4.62891 6.94576 4.62891 6.19348C4.62897 4.2551 6.15671 2.66699 8.07129 2.56946L8.25781 2.56458ZM6.19336 22.2101C4.77869 22.2102 3.62891 23.3598 3.62891 24.7745C3.62906 26.1891 4.77879 27.3389 6.19336 27.339H24.7744C26.189 27.3389 27.3387 26.1891 27.3389 24.7745C27.3389 23.3599 26.1891 22.2102 24.7744 22.2101H6.19336ZM4.12891 16.0157C2.71421 16.0158 1.56445 17.1665 1.56445 18.5812C1.56471 19.9957 2.71437 21.1456 4.12891 21.1456H26.8389C28.2534 21.1455 29.4031 19.9957 29.4033 18.5812C29.4033 17.1665 28.2535 16.0158 26.8389 16.0157H4.12891ZM6.19336 9.82239C4.7788 9.82249 3.62908 10.9723 3.62891 12.3868C3.62891 13.8015 4.77869 14.9512 6.19336 14.9513H24.7744C26.1891 14.9512 27.3389 13.8015 27.3389 12.3868C27.3387 10.9723 26.189 9.82251 24.7744 9.82239H6.19336ZM8.25781 3.62903C6.84322 3.62916 5.69343 4.77887 5.69336 6.19348C5.69336 7.60815 6.84318 8.7578 8.25781 8.75793H18.5811C19.9956 8.75771 21.1455 7.6081 21.1455 6.19348C21.1454 4.77892 19.9956 3.62925 18.5811 3.62903H8.25781Z" fill="#322153" stroke="#322153"/>
</g>
<defs>
<clipPath id="clip0_30629_128">
<rect width="64" height="64" fill="white"/>
</clipPath>
</defs>
</svg>
